<?xml version="1.0" standalone="no"?>
<!DOCTYPE svg PUBLIC "-//W3C//DTD SVG 20010904//EN"
 "http://www.w3.org/TR/2001/REC-SVG-20010904/DTD/svg10.dtd">
<svg version="1.0" xmlns="http://www.w3.org/2000/svg"
 width="431.000000pt" height="431.000000pt" viewBox="0 0 431.000000 431.000000"
 preserveAspectRatio="xMidYMid meet">
<metadata>
Created by potrace 1.14, written by Peter Selinger 2001-2017
</metadata>
<g transform="translate(0.000000,431.000000) scale(0.100000,-0.100000)"
fill="#000000" stroke="none">
<path d="M1102 3997 l-52 -53 2 -1598 3 -1599 195 -52 195 -52 52 51 53 50 0
533 c0 384 3 533 11 533 6 0 70 -16 143 -36 72 -20 138 -37 146 -39 8 -2 60
-15 115 -30 55 -15 163 -44 240 -65 318 -85 782 -210 811 -219 30 -8 35 -6 83
43 40 41 51 59 51 84 0 35 6 37 60 22 33 -10 36 -8 87 42 l53 52 -2 801 -3
800 -95 25 -95 25 -3 102 c-3 101 -3 101 -30 108 -32 8 -1203 320 -1627 434
-159 43 -302 81 -316 84 -21 5 -34 -2 -77 -46z m622 -627 c83 -23 174 -47 201
-55 28 -8 163 -44 300 -81 138 -37 315 -84 395 -105 80 -22 164 -44 188 -50
l42 -12 0 -533 c0 -294 -3 -534 -6 -534 -5 0 -672 177 -1019 271 -38 10 -116
31 -172 46 l-103 27 0 533 c0 382 3 533 11 533 6 0 79 -18 163 -40z"/>
</g>
</svg>
